<?xml version="1.0" encoding="UTF-8" standalone="no"?>
<svg
   xmlns:dc="http://purl.org/dc/elements/1.1/"
   xmlns:cc="http://creativecommons.org/ns#"
   xmlns:rdf="http://www.w3.org/1999/02/22-rdf-syntax-ns#"
   xmlns:svg="http://www.w3.org/2000/svg"
   xmlns="http://www.w3.org/2000/svg"
   xmlns:sodipodi="http://sodipodi.sourceforge.net/DTD/sodipodi-0.dtd"
   xmlns:inkscape="http://www.inkscape.org/namespaces/inkscape"
   aria-hidden="true"
   focusable="false"
   data-prefix="fas"
   data-icon="dice-d20"
   class="svg-inline--fa fa-dice-d20 fa-w-15"
   role="img"
   viewBox="0 0 1466.1196 1466.1195"
   version="1.1"
   id="svg4"
   sodipodi:docname="minotaure_logo.svg"
   inkscape:version="1.0.1 (1.0.1+r73)"
   width="38.79108cm"
   height="38.79108cm"
   inkscape:export-filename="/home/guepe/Téléchargements/art/atrpg/minotaure_favicon.png"
   inkscape:export-xdpi="2.0953269"
   inkscape:export-ydpi="2.0953269">
  <metadata
     id="metadata10">
    <rdf:RDF>
      <cc:Work
         rdf:about="">
        <dc:format>image/svg+xml</dc:format>
        <dc:type
           rdf:resource="http://purl.org/dc/dcmitype/StillImage" />
        <dc:title />
      </cc:Work>
    </rdf:RDF>
  </metadata>
  <defs
     id="defs8">
    <inkscape:path-effect
       effect="mirror_symmetry"
       start_point="1100.8052,128.1338"
       end_point="1100.8052,1132.1937"
       center_point="1100.8052,630.16375"
       id="path-effect841"
       is_visible="true"
       lpeversion="1"
       mode="free"
       discard_orig_path="false"
       fuse_paths="false"
       oposite_fuse="false"
       split_items="false" />
  </defs>
  <sodipodi:namedview
     pagecolor="#ffffff"
     bordercolor="#666666"
     borderopacity="1"
     objecttolerance="10"
     gridtolerance="10"
     guidetolerance="10"
     inkscape:pageopacity="0"
     inkscape:pageshadow="2"
     inkscape:window-width="1852"
     inkscape:window-height="1016"
     id="namedview6"
     showgrid="false"
     inkscape:zoom="0.25000001"
     inkscape:cx="538.65301"
     inkscape:cy="740.60244"
     inkscape:window-x="68"
     inkscape:window-y="27"
     inkscape:window-maximized="1"
     inkscape:current-layer="layer1"
     inkscape:snap-global="true"
     inkscape:document-rotation="0"
     inkscape:snap-object-midpoints="true"
     inkscape:snap-center="true"
     units="cm"
     fit-margin-top="1.3877788e-16"
     fit-margin-right="1.3877788e-16"
     fit-margin-bottom="1.3877788e-16"
     fit-margin-left="1.3877788e-16"
     inkscape:showpageshadow="false"
     lock-margins="true"
     inkscape:pagecheckerboard="true"
     showguides="true"
     inkscape:snap-page="true"
     inkscape:snap-bbox="true"
     inkscape:snap-nodes="true"
     inkscape:snap-others="false"
     inkscape:bbox-paths="true"
     inkscape:bbox-nodes="true" />
  <g
     inkscape:groupmode="layer"
     id="layer1"
     inkscape:label="minotaure"
     style="display:inline"
     transform="translate(-374.53906,-11290.972)">
    <circle
       style="fill:#ffffff;fill-opacity:1;stroke-width:2.11592;stroke-dasharray:2.11592, 4.23184;stroke-opacity:0.8"
       id="circle1142"
       cx="1107.5989"
       cy="12024.032"
       r="733.05981"
       inkscape:export-xdpi="100"
       inkscape:export-ydpi="100" />
    <path
       fill="currentColor"
       d="m 1107.5989,12250.898 c -43.501,0 -78.764,-35.263 -78.764,-78.764 v -131.274 c 0,-43.5 35.263,-78.764 78.764,-78.764 43.5,0 78.764,35.264 78.764,78.764 v 131.274 c 0,43.501 -35.264,78.764 -78.764,78.764 z"
       id="path1144"
       sodipodi:nodetypes="sssssss"
       style="display:inline;fill:#cc4c4c;fill-opacity:1;stroke-width:0.820459" />
    <path
       id="path1146"
       style="display:inline;fill:#000000;fill-opacity:1;stroke-width:0.820459"
       d="m 859.95877,11428.538 c -1.917,-0.03 -4.48119,0.931 -7.74219,3.436 l -228.11914,175.242 c -10.9465,8.41 -5.88184,17.419 -2.93554,25.414 l 68.50976,185.91 c 8.4572,22.949 7.74869,16.721 24.02539,5.336 l 164.21094,-114.849 c 17.14,-11.989 19.05725,-13.846 0.15625,-21.801 l -120.51172,-50.721 c -14.902,-6.272 -15.89658,-18.784 -10.64258,-26.525 l 115.78321,-170.578 c 2.818,-4.151 2.16162,-10.775 -2.73438,-10.864 z m 495.28123,0 c -4.897,0.09 -5.5514,6.713 -2.7344,10.864 l 115.7832,170.578 c 5.254,7.741 4.2604,20.253 -10.6426,26.525 l -120.5117,50.721 c -18.9,7.955 -16.9847,9.812 0.1563,21.801 l 164.2109,114.849 c 16.276,11.385 15.5684,17.613 24.0254,-5.336 l 68.5097,-185.91 c 2.946,-7.995 8.0095,-17.004 -2.9375,-25.414 l -228.1171,-175.242 c -3.261,-2.505 -5.8262,-3.471 -7.7422,-3.436 z m -496.91795,481.758 c -48.07,0 -87.04006,38.971 -87.03906,87.041 0,48.07 38.97006,87.039 87.03906,87.039 48.07,0 87.03907,-38.969 87.03907,-87.039 0,-48.07 -38.96807,-87.041 -87.03907,-87.041 z m 498.55075,0 c -48.071,0 -87.0381,38.971 -87.0371,87.041 0,48.07 38.9671,87.039 87.0371,87.039 48.069,0 87.039,-38.969 87.039,-87.039 0,-48.07 -38.969,-87.041 -87.039,-87.041 z m -380.54684,209.328 c -7.254,0 -13.12695,5.874 -13.12695,13.127 v 39.383 c 0,72.939 54.38799,133.3 124.70899,142.949 v 27.707 h -45.9453 l 16.4082,39.381 h 98.4551 l 16.4101,-39.381 h -45.9453 v -28.019 c 72.225,-9.96 124.709,-75.524 124.709,-149.07 v -32.95 c 0,-7.253 -5.874,-13.127 -13.127,-13.127 h -13.1269 c -7.253,0 -13.1289,5.874 -13.1289,13.127 v 34.705 c 0,54.815 -39.9644,103.863 -94.5254,109.188 -62.601,6.104 -115.5117,-43.14 -115.5117,-104.51 v -39.383 c 0,-7.253 -5.87499,-13.127 -13.12699,-13.127 z" />
    <path
       id="path1148"
       style="display:inline;fill:#a33737;fill-opacity:1;stroke-width:1.94479"
       d="m 1107.5959,11663.786 c -10.209,0 -20.4208,4.941 -26.5078,14.821 l -131.35154,231.396 c 21.692,22.698 35.01758,53.459 35.01758,87.334 0,2.935 -0.10864,5.846 -0.30664,8.731 h 22.6133 c 11.92,-44.366 52.413,-77.026 100.541,-77.026 48.128,0 88.622,32.66 100.541,77.026 h 22.6113 c -0.197,-2.885 -0.3047,-5.796 -0.3047,-8.731 0,-33.871 13.3228,-64.629 35.0098,-87.326 l -131.3555,-231.404 c -6.087,-9.88 -16.2978,-14.821 -26.5078,-14.821 z m -130.96676,20.688 c -2.556,-0.01 -5.22856,0.645 -7.85156,2.144 l -293.29297,191.776 c -4.8038,3.15 -4.64709,10.229 0.25391,13.185 l 72.61132,43.364 c 21.742,-38.238 62.84361,-64.034 109.97461,-64.034 12.998,0 25.54075,1.968 37.34375,5.612 l 94.07422,-168.237 c 6.858,-11.156 -2.03628,-23.762 -13.11328,-23.81 z m 261.93356,0 c -11.077,0.05 -19.9722,12.654 -13.1152,23.81 l 94.0781,168.241 c 11.807,-3.646 24.3496,-5.616 37.3516,-5.616 47.1269,0 88.2247,25.787 109.9687,64.018 l 72.6074,-43.367 c 4.92,-2.956 5.056,-10.037 0.252,-13.188 l -293.293,-191.754 c -2.621,-1.499 -5.2926,-2.155 -7.8496,-2.144 z m -589.9609,264.268 c -4.0452,0.02 -7.75196,3.255 -7.75196,7.792 v 316.627 c 0,7.838 10.28766,10.755 14.41016,4.065 l 115.89648,-188.336 c -24.161,-23.012 -39.23581,-55.478 -39.25781,-91.473 l -79.26367,-47.552 c -1.2982,-0.778 -2.6854,-1.13 -4.0332,-1.123 z m 917.9843,0 c -1.349,-0.01 -2.7332,0.345 -4.0312,1.123 l -79.25,47.554 c -0.02,36.001 -15.1054,68.473 -39.2754,91.485 l 115.9004,188.341 c 4.103,6.69 14.4101,3.773 14.4101,-4.084 v -316.627 c 0,-4.537 -3.7089,-7.771 -7.7539,-7.792 z m -722.24602,174.539 c -15.5756,-0.08 -31.39878,11.196 -47.38867,34.812 l -153.76758,227.109 c -5.99,9.724 0.19305,22.363 11.53125,23.608 l 360.51562,38.205 c 30.463,3.228 39.4793,-4.075 22.5703,-33.662 L 899.51,12171.372 c -17.93577,-31.384 -36.37179,-48.001 -55.16992,-48.091 z m 526.52342,0 c -18.7981,0.09 -37.2361,16.707 -55.1719,48.091 l -138.289,241.981 c -16.909,29.587 -7.8927,36.89 22.5703,33.662 l 360.5156,-38.205 c 11.3382,-1.245 17.5212,-13.884 11.5312,-23.608 l -153.7676,-227.109 c -15.9899,-23.616 -31.813,-34.887 -47.3886,-34.812 z m -691.03905,349.535 v 0 c -8.0636,-0.186 -11.07502,11.046 -3.48242,14.777 l 378.06247,170.476 c 10.307,4.766 22.0742,-2.782 22.0742,-14.119 v -127.714 l -395.85933,-43.368 c -0.2707,-0.03 -0.53512,-0.05 -0.79492,-0.06 z m 855.54095,0 c -0.261,0.01 -0.5269,0.02 -0.7969,0.06 l -395.8554,43.35 v 127.717 c 0,11.357 11.7633,18.884 22.0703,14.119 l 378.0644,-170.483 c 7.591,-3.711 4.5816,-14.943 -3.4824,-14.758 z" />
  </g>
</svg>
